<svg viewBox="0 0 91 91" xml:space="preserve" xmlns="http://www.w3.org/2000/svg" enable-background="new 0 0 91 91"><path d="M25.1 61.5C28.4 60 32 59 35.8 58.3c-.7-3.2-1.1-6.5-1.2-9.9H18.3c.3 5.2 2 9.9 4.8 13.9l2-.8zM26.4 64.7l-1.2.5c4.4 5 10.6 8.3 17.5 9.1l-.3-.4c-2.5-3.4-4.5-7.6-5.8-12.2-3.7.6-7.1 1.6-10.2 3zM36.5 32c1.2-4.3 3-8.3 5.3-11.6l.9-1.2c-7 .8-13.1 4.2-17.6 9.2l1.1.5c3.2 1.4 6.7 2.5 10.3 3.1zM35.7 35.3c-3.9-.7-7.5-1.8-10.9-3.3l-1.8-.8c-2.7 4-4.4 8.8-4.7 13.9h16.3c.1-3.4.4-6.7 1.1-9.8zM66.3 65.5l-.7-.5c-3.4-1.6-7.2-2.7-11.2-3.4-1.3 4.6-3.3 8.8-5.8 12.2l-.4.6c7.2-.6 13.5-3.9 18.1-8.9zM65.7 28.6l.8-.4c-4.6-5.1-11-8.4-18.2-9l.9 1.3c2.3 3.3 4 7.3 5.3 11.6 4-.7 7.8-1.9 11.2-3.5zM37.9 45H53c-.1-3.2-.5-6.3-1.1-9.2-2.1.2-4.2.4-6.3.4-2.2 0-4.4-.1-6.5-.4-.7 2.9-1.1 6.1-1.2 9.2zM68.6 30.8l-1.4.8c-3.6 1.7-7.7 3-11.9 3.7.7 3.1 1 6.4 1.1 9.7h17.2c-.3-5.2-2.1-10.1-5-14.2zM67.3 62.1l1.2.8c3-4.1 4.8-9.1 5.1-14.4H56.4c-.1 3.4-.5 6.7-1.2 9.9 4.3.7 8.3 2 11.9 3.7h.2zM45.5 21.1l-1 1.3c-2 2.8-3.5 6.3-4.6 10.1 1.9.2 3.8.3 5.7.3 1.9 0 3.7-.1 5.5-.3-1.1-3.8-2.7-7.3-4.7-10.2l-.9-1.2zM45.5 72.4l.4-.5c2.2-3 3.9-6.7 5.1-10.7-1.8-.2-3.6-.3-5.4-.3-1.9 0-3.8.1-5.6.3 1.2 4 2.9 7.7 5.1 10.6l.4.6zM45.6 57.5c2.1 0 4.2.1 6.3.4.7-3 1-6.2 1.1-9.4H37.9c.1 3.3.5 6.4 1.1 9.4 2.2-.3 4.4-.4 6.6-.4z" fill="#FFFFFF" class="fill-000000"></path></svg>